<svg id="Layer_1" data-name="Layer 1" xmlns="http://www.w3.org/2000/svg" viewBox="0 0 38.19 40"><defs><style>.cls-1{fill:#43b02a;}</style></defs><title>Selenium logo mark green</title><path class="cls-1" d="M25.24,25.31a2.93,2.93,0,0,0-3,2.6.1.1,0,0,0,.1.11h5.82a.1.1,0,0,0,.1-.11A2.83,2.83,0,0,0,25.24,25.31Z"/><path class="cls-1" d="M37.72,5.78,25.36,19.65a.38.38,0,0,1-.55,0l-6.31-6.5a.38.38,0,0,1,0-.47L20.55,10a.38.38,0,0,1,.61,0l3.51,3.91a.38.38,0,0,0,.57,0L35.14.42A.27.27,0,0,0,34.93,0H.29A.29.29,0,0,0,0,.29V39.71A.29.29,0,0,0,.29,40H37.9a.29.29,0,0,0,.29-.29V6A.27.27,0,0,0,37.72,5.78ZM10.65,35.61a9.51,9.51,0,0,1-6.75-2.4.37.37,0,0,1,0-.48l1.47-2.06a.37.37,0,0,1,.55-.06,7.23,7.23,0,0,0,4.94,1.93c1.93,0,2.87-.89,2.87-1.83,0-2.92-9.5-.92-9.5-7.13,0-2.75,2.38-5,6.26-5a9.28,9.28,0,0,1,6.18,2.07.37.37,0,0,1,0,.5l-1.51,2a.37.37,0,0,1-.53.06,7.15,7.15,0,0,0-4.51-1.56c-1.51,0-2.35.67-2.35,1.66,0,2.62,9.48.87,9.48,7C17.26,33.33,15.11,35.61,10.65,35.61Zm20.73-5.72a.32.32,0,0,1-.32.32H22.39a.1.1,0,0,0-.1.11,3.31,3.31,0,0,0,3.51,2.73,5.44,5.44,0,0,0,3-1,.32.32,0,0,1,.46.07l1.06,1.55a.33.33,0,0,1-.07.44,7.85,7.85,0,0,1-4.82,1.5,6.21,6.21,0,0,1-6.55-6.45,6.24,6.24,0,0,1,6.35-6.42c3.66,0,6.14,2.74,6.14,6.75Z"/></svg>