<svg xmlns="http://www.w3.org/2000/svg" width="48" height="48" xmlns:v="https://vecta.io/nano"><path fill="#1de9b6" d="M4 23.48C4 15.673 10.557 4 24.014 4 37.452 4 44 13.923 44 20.905c0 5.604-4.43 9.732-9.992 9.732-4.245 0-6.76-1.408-6.76-2.53 0-.726 1.755-1.837 1.755-3.982 0-2.565-1.986-5.137-5.045-5.137a4.98 4.98 0 0 0-4.974 4.905c0 5.952 5.63 11.644 13.93 11.644 4.96 0 6.76-1.828 7.403-1.828.196 0 .647.08.647.603 0 .5-5.486 9.686-16.94 9.686C12.632 44 4 35.023 4 23.48z"/><radialGradient id="A" cx="17.993" cy="32.825" r="21.348" gradientTransform="matrix(1 0 0 1.1083 0 -3.529)" gradientUnits="userSpaceOnUse"><stop offset=".652" stop-color="#0083de"/><stop offset=".822" stop-color="#006aac"/><stop offset=".944" stop-color="#005a8c"/></radialGradient><path fill="url(#A)" d="M4 23.48c0-7.808 7.615-12.04 12.73-12.04 13.44 0 17.277 2.483 17.277 9.465 0 5.604-5.003 5.366-5.003 3.22 0-2.565-1.986-5.137-5.045-5.137a4.98 4.98 0 0 0-4.974 4.905c0 5.952 5.63 11.644 13.93 11.644 4.96 0 6.76-1.828 7.403-1.828.196 0 .647.08.647.603 0 .5-5.486 9.686-16.94 9.686C12.632 44 4 35.023 4 23.48z"/><radialGradient id="B" cx="28.082" cy="29.295" r="16.478" gradientTransform="matrix(1 0 0 1.0028 0 -.067)" gradientUnits="userSpaceOnUse"><stop offset=".69" stop-color="#05509b"/><stop offset=".717" stop-color="#054e98"/><stop offset="1" stop-color="#033e78"/></radialGradient><path fill="url(#B)" d="M18.985 23.894c0-2.298 1.775-4.575 4.395-4.87-4.104.35-8.798 4.375-8.798 11.83 0 7.963 6.864 13.465 13.943 12.628 8.386-1.927 12.44-8.74 12.44-9.168 0-.523-.45-.603-.647-.603-.643 0-2.444 1.828-7.403 1.828-8.3 0-13.93-5.692-13.93-11.645z"/><radialGradient id="C" cx="47.648" cy="16.079" r="61.532" gradientTransform="matrix(-1 0 0 -1.5084 95.296 40.31)" gradientUnits="userSpaceOnUse"><stop offset="0" stop-color="#5eeb69"/><stop offset=".214" stop-color="#4bc958"/><stop offset=".225" stop-color="#4ac862"/><stop offset=".272" stop-color="#47c68b"/><stop offset=".323" stop-color="#44c4ae"/><stop offset=".376" stop-color="#41c2cb"/><stop offset=".433" stop-color="#3fc1e1"/><stop offset=".495" stop-color="#3ec0f1"/><stop offset=".565" stop-color="#3dbffa"/><stop offset=".664" stop-color="#3dbffd"/></radialGradient><path fill="url(#C)" d="M4 23.48C4 15.673 10.557 4 24.014 4 37.452 4 44 13.923 44 20.905c0 5.604-4.43 9.732-9.992 9.732-4.245 0-6.76-1.408-6.76-2.53 0-.726 1.755-1.837 1.755-3.982 0-2.565-2.076-10.678-12.628-10.678C13.442 13.448 5.256 14.745 4 23.48z"/></svg>