<svg xmlns="http://www.w3.org/2000/svg" xmlns:xlink="http://www.w3.org/1999/xlink" height="81.967" width="87.419" xmlns:v="https://vecta.io/nano"><defs><linearGradient y2="74.464" x2="10.147" y1="12.389" x1="74.486" id="A" xlink:href="#O"><stop stop-color="#fff44f" offset=".048"/><stop stop-color="#ffe847" offset=".111"/><stop stop-color="#ffc830" offset=".225"/><stop stop-color="#ff980e" offset=".368"/><stop stop-color="#ff8b16" offset=".401"/><stop stop-color="#ff672a" offset=".462"/><stop stop-color="#ff3647" offset=".534"/><stop stop-color="#e31587" offset=".705"/></linearGradient><radialGradient gradientTransform="translate(7978.7,8523.9959)" r="80.797" cy="-8515.121" cx="-7907.187" id="B" xlink:href="#O"><stop stop-color="#ffbd4f" offset=".129"/><stop stop-color="#ffac31" offset=".186"/><stop stop-color="#ff9d17" offset=".247"/><stop stop-color="#ff980e" offset=".283"/><stop stop-color="#ff563b" offset=".403"/><stop stop-color="#ff3750" offset=".467"/><stop stop-color="#f5156c" offset=".71"/><stop stop-color="#eb0878" offset=".782"/><stop stop-color="#e50080" offset=".86"/></radialGradient><radialGradient gradientTransform="translate(0 0) translate(7978.7,8523.9959)" r="80.797" cy="-8482.089" cx="-7936.711" id="C" xlink:href="#O"><stop stop-color="#960e18" offset=".3"/><stop stop-opacity=".74" stop-color="#b11927" offset=".351"/><stop stop-opacity=".343" stop-color="#db293d" offset=".435"/><stop stop-opacity=".094" stop-color="#f5334b" offset=".497"/><stop stop-opacity="0" stop-color="#ff3750" offset=".53"/></radialGradient><radialGradient gradientTransform="translate(7978.7,8523.9959)" r="58.534" cy="-8533.457" cx="-7926.97" id="D" xlink:href="#O"><stop stop-color="#fff44f" offset=".132"/><stop stop-color="#ffdc3e" offset=".252"/><stop stop-color="#ff9d12" offset=".506"/><stop stop-color="#ff980e" offset=".526"/></radialGradient><radialGradient gradientTransform="translate(7978.7,8523.9959)" r="38.471" cy="-8460.984" cx="-7945.648" id="E" xlink:href="#O"><stop stop-color="#3a8ee6" offset=".353"/><stop stop-color="#5c79f0" offset=".472"/><stop stop-color="#9059ff" offset=".669"/><stop stop-color="#c139e6" offset="1"/></radialGradient><radialGradient gradientTransform="matrix(0.972,-0.235,0.275,1.138,10095.002,7833.7939)" r="20.397" cy="-8491.546" cx="-7935.62" id="F" xlink:href="#O"><stop stop-opacity="0" stop-color="#9059ff" offset=".206"/><stop stop-opacity=".064" stop-color="#8c4ff3" offset=".278"/><stop stop-opacity=".45" stop-color="#7716a8" offset=".747"/><stop stop-opacity=".6" stop-color="#6e008b" offset=".975"/></radialGradient><radialGradient gradientTransform="translate(7978.7,8523.9959)" r="27.676" cy="-8518.427" cx="-7937.731" id="G" xlink:href="#O"><stop stop-color="#ffe226" offset="0"/><stop stop-color="#ffdb27" offset=".121"/><stop stop-color="#ffc82a" offset=".295"/><stop stop-color="#ffa930" offset=".502"/><stop stop-color="#ff7e37" offset=".732"/><stop stop-color="#ff7139" offset=".792"/></radialGradient><radialGradient gradientTransform="translate(7978.7,8523.9959)" r="118.081" cy="-8535.981" cx="-7915.977" id="H" xlink:href="#O"><stop stop-color="#fff44f" offset=".113"/><stop stop-color="#ff980e" offset=".456"/><stop stop-color="#ff5634" offset=".622"/><stop stop-color="#ff3647" offset=".716"/><stop stop-color="#e31587" offset=".904"/></radialGradient><radialGradient gradientTransform="matrix(0.105,0.995,-0.653,0.069,-4680.304,8470.1869)" r="86.499" cy="-8522.859" cx="-7927.165" id="I" xlink:href="#O"><stop stop-color="#fff44f" offset="0"/><stop stop-color="#ffe847" offset=".06"/><stop stop-color="#ffc830" offset=".168"/><stop stop-color="#ff980e" offset=".304"/><stop stop-color="#ff8b16" offset=".356"/><stop stop-color="#ff672a" offset=".455"/><stop stop-color="#ff3647" offset=".57"/><stop stop-color="#e31587" offset=".737"/></radialGradient><radialGradient gradientTransform="translate(7978.7,8523.9959)" r="73.72" cy="-8508.176" cx="-7938.383" id="J" xlink:href="#O"><stop stop-color="#fff44f" offset=".137"/><stop stop-color="#ff980e" offset=".48"/><stop stop-color="#ff5634" offset=".592"/><stop stop-color="#ff3647" offset=".655"/><stop stop-color="#e31587" offset=".904"/></radialGradient><radialGradient gradientTransform="translate(7978.7,8523.9959)" r="80.686" cy="-8503.861" cx="-7918.923" id="K" xlink:href="#O"><stop stop-color="#fff44f" offset=".094"/><stop stop-color="#ffe141" offset=".231"/><stop stop-color="#ffaf1e" offset=".509"/><stop stop-color="#ff980e" offset=".626"/></radialGradient><linearGradient y2="66.802" x2="18.967" y1="12.057" x1="73.713" id="L" xlink:href="#O"><stop stop-opacity=".8" stop-color="#fff44f" offset=".167"/><stop stop-opacity=".634" stop-color="#fff44f" offset=".266"/><stop stop-opacity=".217" stop-color="#fff44f" offset=".489"/><stop stop-opacity="0" stop-color="#fff44f" offset=".6"/></linearGradient><path id="M" d="M79.616 26.827c-1.684-4.052-5.1-8.427-7.775-9.8a40.266 40.266 0 0 1 3.925 11.764v.037l.007.04a35.1 35.1 0 0 1-1.206 26.158c-4.442 9.53-15.194 19.3-32.024 18.825-18.185-.515-34.2-14.01-37.194-31.683-.545-2.787 0-4.2.274-6.465A28.876 28.876 0 0 0 5 41.042v.2a38.759 38.759 0 0 0 76.954 6.554l.176-1.5a39.857 39.857 0 0 0-2.514-19.469z"/><path id="N" d="M43.825 33.79c-.064.964-3.47 4.29-4.66 4.29-11.02 0-12.8 6.667-12.8 6.667.488 5.614 4.4 10.238 9.13 12.684a13.44 13.44 0 0 0 .654.312q.57.252 1.138.466a17.235 17.235 0 0 0 5.043.973c19.317.906 23.06-23.1 9.12-30.066a13.38 13.38 0 0 1 9.345 2.269A19.56 19.56 0 0 0 43.8 21.466c-.46 0-.9.038-1.362.07a19.387 19.387 0 0 0-10.666 4.111c.59.5 1.258 1.168 2.663 2.553 2.63 2.59 9.375 5.275 9.4 5.6z"/><linearGradient id="O" gradientUnits="userSpaceOnUse"/></defs><path d="M79.616 26.827c-1.684-4.052-5.1-8.427-7.775-9.8a40.266 40.266 0 0 1 3.925 11.764l.007.065C71.39 17.92 63.96 13.516 57.89 3.924l-.913-1.484a12.24 12.24 0 0 1-.427-.8 7.053 7.053 0 0 1-.578-1.535.1.1 0 0 0-.088-.1.138.138 0 0 0-.073 0c-.005 0-.013.01-.02.01s-.02.01-.028.015l.015-.026c-9.735 5.7-13.038 16.252-13.342 21.53a19.387 19.387 0 0 0-10.666 4.111 11.587 11.587 0 0 0-1-.758 17.968 17.968 0 0 1-.109-9.473 28.705 28.705 0 0 0-9.329 7.21h-.018c-1.536-1.947-1.428-8.367-1.34-9.708a6.928 6.928 0 0 0-1.294.687 28.225 28.225 0 0 0-3.788 3.245 33.845 33.845 0 0 0-3.623 4.347v.006-.007a32.733 32.733 0 0 0-5.2 11.743l-.052.256a61.89 61.89 0 0 0-.381 2.42c0 .03-.006.056-.01.085A36.937 36.937 0 0 0 5 41.042v.2a38.759 38.759 0 0 0 76.954 6.554l.176-1.5a39.857 39.857 0 0 0-2.514-19.469zm-44.67 30.338c.18.087.35.18.537.264l.027.017q-.282-.135-.564-.28zm8.878-23.376zm31.952-4.934v-.037l.007.04z" fill="url(#A)"/><use xlink:href="#M" fill="url(#B)"/><use xlink:href="#M" fill="url(#C)"/><path d="M60.782 31.383l.24.177a21.1 21.1 0 0 0-3.6-4.695C45.377 14.817 54.266.742 55.765.027l.015-.022c-9.735 5.7-13.038 16.252-13.342 21.53.452-.03.9-.07 1.362-.07a19.56 19.56 0 0 1 16.982 9.917z" fill="url(#D)"/><use xlink:href="#N" fill="url(#E)"/><use xlink:href="#N" fill="url(#F)"/><path d="M29.965 24.357l.8.53a17.968 17.968 0 0 1-.109-9.473 28.705 28.705 0 0 0-9.329 7.21c.19-.005 5.81-.106 8.638 1.732z" fill="url(#G)"/><path d="M5.354 42.16c2.99 17.674 19.01 31.168 37.194 31.683 16.83.476 27.582-9.294 32.024-18.825a35.1 35.1 0 0 0 1.206-26.158v-.037c0-.03-.006-.046 0-.037l.007.065c1.375 8.977-3.19 17.674-10.33 23.555l-.022.05c-13.908 11.327-27.218 6.834-29.912 5q-.282-.135-.564-.28c-8.11-3.876-11.46-11.264-10.74-17.6a9.953 9.953 0 0 1-9.181-5.775 14.618 14.618 0 0 1 14.249-.572 19.3 19.3 0 0 0 14.552.572c-.015-.315-6.76-3-9.4-5.6-1.405-1.385-2.072-2.052-2.663-2.553a11.587 11.587 0 0 0-1-.758l-.8-.53c-2.827-1.838-8.45-1.737-8.635-1.732h-.018c-1.536-1.947-1.428-8.367-1.34-9.708a6.928 6.928 0 0 0-1.294.687 28.225 28.225 0 0 0-3.788 3.245 33.845 33.845 0 0 0-3.638 4.337v.006-.007a32.733 32.733 0 0 0-5.2 11.743c-.02.08-1.396 6.1-.717 9.22z" fill="url(#H)"/><path d="M57.425 26.865a21.1 21.1 0 0 1 3.6 4.7l.58.476c8.787 8.1 4.183 19.55 3.84 20.365 7.138-5.88 11.7-14.578 10.33-23.555C71.39 17.92 63.96 13.516 57.89 3.924l-.913-1.484a12.24 12.24 0 0 1-.427-.8 7.053 7.053 0 0 1-.578-1.535.1.1 0 0 0-.088-.1.138.138 0 0 0-.073 0c-.005 0-.013.01-.02.01s-.02.01-.028.015c-1.5.71-10.388 14.786 1.66 26.834z" fill="url(#I)"/><path d="M61.6 32.036c-.17-.155-.368-.315-.58-.476l-.24-.177a13.38 13.38 0 0 0-9.345-2.269c13.94 6.97 10.2 30.972-9.12 30.066a17.235 17.235 0 0 1-5.043-.973q-.57-.213-1.138-.466a14.44 14.44 0 0 1-.654-.312l.027.017c2.694 1.84 16 6.332 29.912-5l.022-.05c.347-.8 4.95-12.263-3.84-20.36z" fill="url(#J)"/><path d="M26.354 44.745s1.79-6.667 12.8-6.667c1.19 0 4.6-3.325 4.66-4.29a19.3 19.3 0 0 1-14.552-.572 14.618 14.618 0 0 0-14.249.572 9.953 9.953 0 0 0 9.181 5.775c-.718 6.337 2.632 13.725 10.74 17.6.18.087.35.18.537.264-4.733-2.445-8.64-7.07-9.13-12.683z" fill="url(#K)"/><path d="M79.616 26.827c-1.684-4.052-5.1-8.427-7.775-9.8a40.266 40.266 0 0 1 3.925 11.764l.007.065C71.39 17.92 63.96 13.516 57.89 3.924l-.913-1.484a12.24 12.24 0 0 1-.427-.8 7.053 7.053 0 0 1-.578-1.535.1.1 0 0 0-.088-.1.138.138 0 0 0-.073 0c-.005 0-.013.01-.02.01s-.02.01-.028.015l.015-.026c-9.735 5.7-13.038 16.252-13.342 21.53.452-.03.9-.07 1.362-.07a19.56 19.56 0 0 1 16.982 9.917 13.38 13.38 0 0 0-9.345-2.269c13.94 6.97 10.2 30.972-9.12 30.066a17.235 17.235 0 0 1-5.043-.973q-.57-.213-1.138-.466c-.22-.1-.438-.2-.654-.312l.027.017q-.282-.135-.564-.28c.18.087.35.18.537.264-4.733-2.446-8.64-7.07-9.13-12.684 0 0 1.79-6.667 12.8-6.667 1.19 0 4.6-3.325 4.66-4.29-.015-.315-6.76-3-9.4-5.6-1.405-1.385-2.072-2.052-2.663-2.553a11.587 11.587 0 0 0-1-.758 17.968 17.968 0 0 1-.109-9.473 28.705 28.705 0 0 0-9.329 7.21h-.018c-1.536-1.947-1.428-8.367-1.34-9.708a6.928 6.928 0 0 0-1.294.687 28.225 28.225 0 0 0-3.788 3.245 33.845 33.845 0 0 0-3.623 4.347v.006-.007a32.733 32.733 0 0 0-5.2 11.743l-.052.256a66.11 66.11 0 0 0-.447 2.445c0 .028 0-.03 0 0A45.094 45.094 0 0 0 5 41.042v.2a38.759 38.759 0 0 0 76.954 6.554l.176-1.5a39.857 39.857 0 0 0-2.514-19.469zm-3.845 1.99l.007.04z" fill="url(#L)"/></svg>