<svg xmlns="http://www.w3.org/2000/svg" viewBox="0 0 494.046 494.046" xmlns:v="https://vecta.io/nano"><path d="M239.03 84.018a10.67 10.67 0 0 0-8.32-18.774c-102.452 17.564-176.754 107.27-174.933 211.2.04 8.742.653 17.472 1.835 26.133a10.67 10.67 0 0 0 9.28 9.195 9.13 9.13 0 0 0 1.323 0c4.377.001 8.3-2.672 9.92-6.74a545.5 545.5 0 0 1 65.493-117.781A567.45 567.45 0 0 1 239.03 84.018zm219.435 158.827c-10.537-76.605-62.266-141.247-134.7-168.32-3.6-1.307-7.642-.573-10.56 1.92a570.37 570.37 0 0 0-55.253 55.02 10.67 10.67 0 0 0 7.019 17.707c38.1 3.456 71.317 37.525 83.904 84.523H183.393a10.67 10.67 0 0 0-8.768 4.587C160.95 257.993 148 277.748 136.225 297h0a482.1 482.1 0 0 0-45.355 91.733 10.67 10.67 0 0 0 1.536 9.621 7.17 7.17 0 0 0 .576.747c36.517 56.005 98.648 90 165.504 90.58 84.9-.93 160.14-54.835 188.33-134.912a10.67 10.67 0 0 0-6.229-13.739c-1.2-.45-2.472-.683-3.755-.683H348.3c-4.054 0-7.757 2.298-9.557 5.93-13.387 33.157-44.575 55.723-80.256 58.07-41.045 0-76.608-34.603-90.048-85.333h279.467a10.67 10.67 0 0 0 10.667-9.152 234.32 234.32 0 0 0 2.667-33.515 233.62 233.62 0 0 0-2.775-33.493z" fill="#2196f3"/><path d="M399.564 10.312c-35.008-25.26-101.717-3.328-174.123 57.173-37.357 31.492-70.65 67.51-99.115 107.22C98.68 212.558 75.828 253.69 58.294 297.16a9.44 9.44 0 0 0-.363 1.088c-34.133 85.547-33.323 157.056 2.133 182.336 11.62 8.075 25.27 12.738 39.403 13.46 2.392.02 4.78-.21 7.125-.683a22.38 22.38 0 0 0 15.424-10.389 10.67 10.67 0 0 0-3.605-14.571c-6.57-4.01-26.56-16.256-7.403-72.81 11.356-30.59 25.885-59.905 43.35-87.467 11.67-18.944 24.405-38.4 37.824-57.728l15.083-21.205a1055.11 1055.11 0 0 1 66.709-83.627 549.32 549.32 0 0 1 53.141-52.971c40.3-34.54 58.048-33.813 63.787-32s9.728 8.107 12.096 18.54a10.52 10.52 0 0 0 11.371 8.256 10.67 10.67 0 0 0 9.664-10.091c1.558-39.487-12.436-58.175-24.468-66.985z" fill="#ffc107"/><path d="M68.086 311.944a10.67 10.67 0 0 1-10.667-9.408 225.67 225.67 0 0 1-1.664-26.176c-1.785-103.918 72.5-193.604 174.933-211.2a10.67 10.67 0 0 1 12.416 8.567 10.67 10.67 0 0 1-8.567 12.416c-.265.05-.53.087-.8.115-91.935 16.04-158.45 96.7-156.672 190.016a196.8 196.8 0 0 0 1.536 23.659 10.67 10.67 0 0 1-9.323 11.859c-.007.001-.014.002-.02.002l-1.172.15zm190.422 177.75c-67.375-.607-129.92-35.086-166.4-91.733a10.67 10.67 0 0 1 17.792-11.755 178.82 178.82 0 0 0 148.608 82.155c70.318-.716 133.75-42.403 162.304-106.667h-66.005c-17.758 37.53-54.82 62.162-96.3 64-54.912 0-101.845-47.467-114.176-115.435a10.67 10.67 0 0 1 8.598-12.395 10.69 10.69 0 0 1 1.898-.17H438.56a193.5 193.5 0 0 0 1.28-21.333 210.69 210.69 0 0 0-2.453-30.485A188.93 188.93 0 0 0 316.447 94.6a10.67 10.67 0 0 1-6.206-13.749 10.67 10.67 0 0 1 13.416-6.325 210.33 210.33 0 0 1 134.827 168.256 233.48 233.48 0 0 1 2.688 33.6 234.21 234.21 0 0 1-2.667 33.515 10.67 10.67 0 0 1-10.667 9.152H168.033c13.397 50.837 49.28 85.333 90.4 85.333a93.14 93.14 0 0 0 80.277-58.091c1.8-3.632 5.503-5.93 9.557-5.93h88.576a10.67 10.67 0 0 1 10.667 10.667 10.66 10.66 0 0 1-.683 3.755C418.63 434.85 343.4 488.756 258.51 489.693zm103.658-234.667H183.478a10.67 10.67 0 0 1-10.667-10.667 10.67 10.67 0 0 1 10.667-10.667h165.397c-12.63-46.933-45.824-81.067-83.883-84.523a10.67 10.67 0 0 1-9.664-11.583c.67-5.794 5.765-10.045 11.584-9.665 51.7 4.715 94.187 50.73 105.77 114.54a10.67 10.67 0 0 1-8.598 12.395 10.69 10.69 0 0 1-1.898.17l-.02.001z"/><path d="M99.382 494.024a76.22 76.22 0 0 1-39.424-13.397c-26.26-18.965-33.92-63.424-21.013-122.027 16.648-66.453 46.328-128.938 87.317-183.83C166.2 117.92 216.75 69.32 275.126 31.646 328.033-.74 373.43-8.44 399.564 10.482c12.01 8.66 26.005 27.285 24.47 66.752a10.67 10.67 0 0 1-21.056 1.984c-3.947-17.067-11.35-18.475-13.803-18.965-30.677-6.272-105.536 63.317-181.91 169.024-95.19 131.755-108.78 191.125-103.424 217.728 1.457 8.895 6.755 16.697 14.485 21.333a10.67 10.67 0 0 1 3.648 14.507 22.27 22.27 0 0 1-15.317 10.496c-2.395.475-4.833.703-7.275.683zM364.086 21.448c-27.95 2.6-54.76 12.357-77.845 28.33a525.22 525.22 0 0 0-142.699 137.6 495.77 495.77 0 0 0-83.776 175.914c-10.837 49.067-6.08 86.613 12.672 100.14a57.01 57.01 0 0 0 18.837 8.235c-4.12-6.147-6.956-13.062-8.34-20.33-9.173-45.42 25.856-122.112 107.03-234.453 32.34-44.8 142.74-189.504 203.435-177.43 1.26.257 2.506.577 3.733.96a32.13 32.13 0 0 0-10.069-12.523 38.52 38.52 0 0 0-22.976-6.443z"/></svg>