<svg xmlns="http://www.w3.org/2000/svg" viewBox="0 0 512 512" xmlns:v="https://vecta.io/nano"><path d="M256 0C126.613 0 21.333 114.837 21.333 256S126.613 512 256 512s234.667-114.837 234.667-256S385.387 0 256 0zm84.97 397.355a87.47 87.47 0 0 1-73.109 70.677c-3.894.87-7.872 1.306-11.86 1.3a56.92 56.92 0 0 1-12.608-1.451c-36.685-5.697-65.737-34.003-72.384-70.528a568.21 568.21 0 0 1-21.675-141.355c1.253-47.844 8.543-95.338 21.696-141.355a87.47 87.47 0 0 1 73.109-70.656 56.15 56.15 0 0 1 24.427.128c36.743 5.653 65.863 33.977 72.533 70.55 13.11 46.016 20.356 93.502 21.568 141.333a568.23 568.23 0 0 1-21.696 141.357z" fill="#f44336"/><path d="M256 512C126.613 512 21.333 397.163 21.333 256S126.613 0 256 0s234.667 114.837 234.667 256S385.387 512 256 512zm0-490.667C138.368 21.333 42.667 126.613 42.667 256S138.368 490.667 256 490.667 469.333 385.387 469.333 256 373.632 21.333 256 21.333zm0 448a57.04 57.04 0 0 1-12.608-1.451c-36.682-5.703-65.73-34.006-72.384-70.528-13.13-46.02-20.414-93.513-21.675-141.355 1.26-47.84 8.543-95.333 21.675-141.355a87.47 87.47 0 0 1 73.109-70.656 57.08 57.08 0 0 1 24.47.15c36.682 5.703 65.73 34.006 72.384 70.528a569.9 569.9 0 0 1 21.696 141.333c-1.26 47.84-8.543 95.333-21.675 141.355h0a87.47 87.47 0 0 1-73.109 70.677A54.02 54.02 0 0 1 256 469.333zM256 64a34.36 34.36 0 0 0-7.83.917 67.01 67.01 0 0 0-56.512 55.104A549.46 549.46 0 0 0 170.667 256a549.46 549.46 0 0 0 20.992 135.979c4.753 28.464 27.275 50.64 55.808 54.955a32.61 32.61 0 0 0 16.405.149 67.01 67.01 0 0 0 56.512-55.104 549.53 549.53 0 0 0 20.95-135.98 549.46 549.46 0 0 0-20.992-135.979c-4.753-28.464-27.275-50.64-55.808-54.955A37.52 37.52 0 0 0 256 64z"/></svg>