<svg xmlns="http://www.w3.org/2000/svg" xmlns:xlink="http://www.w3.org/1999/xlink" width="250.076" height="248.707" viewBox="0 0 66.166 65.804"><defs><linearGradient id="b"><stop style="stop-color:#06c2e7;stop-opacity:1" offset="0"/><stop offset=".25" style="stop-color:#0db8ec;stop-opacity:1"/><stop offset=".5" style="stop-color:#12aef1;stop-opacity:1"/><stop style="stop-color:#1f86f9;stop-opacity:1" offset=".75"/><stop style="stop-color:#107ddd;stop-opacity:1" offset="1"/></linearGradient><linearGradient id="a"><stop style="stop-color:#bdbdbd;stop-opacity:1" offset="0"/><stop style="stop-color:#fff;stop-opacity:1" offset="1"/></linearGradient><linearGradient xlink:href="#a" id="d" x1="412.975" y1="237.608" x2="412.975" y2="59.392" gradientUnits="userSpaceOnUse" gradientTransform="matrix(.35154 0 0 .35154 206.79 159.773)"/><filter style="color-interpolation-filters:sRGB" id="f" x="-.021" width="1.042" y="-.022" height="1.045"><feGaussianBlur stdDeviation=".958"/></filter><filter style="color-interpolation-filters:sRGB" id="c" x="-.048" width="1.096" y="-.048" height="1.096"><feGaussianBlur stdDeviation="3.564"/></filter><radialGradient xlink:href="#b" id="e" cx="413.061" cy="136.818" fx="413.061" fy="136.818" r="82.125" gradientUnits="userSpaceOnUse" gradientTransform="matrix(.38143 0 0 .38143 194.545 155.58)"/></defs><path transform="matrix(.33865 0 0 .3261 -106.77 -14.478)" style="opacity:.52999998;fill:#000;fill-opacity:1;stroke:none;stroke-width:2.93077397;stroke-linecap:round;stroke-linejoin:round;stroke-miterlimit:4;stroke-dasharray:none;stroke-dashoffset:0;stroke-opacity:1;paint-order:markers stroke fill;filter:url(#c)" d="M502.083 148.5a89.108 89.108 0 0 1-89.108 89.108 89.108 89.108 0 0 1-89.108-89.108 89.108 89.108 0 0 1 89.108-89.108 89.108 89.108 0 0 1 89.108 89.108Z"/><path d="M383.294 211.977a31.325 31.325 0 0 1-31.325 31.325 31.325 31.325 0 0 1-31.326-31.325 31.325 31.325 0 0 1 31.326-31.325 31.325 31.325 0 0 1 31.325 31.325z" style="opacity:1;fill:url(#d);fill-opacity:1;stroke:#cdcdcd;stroke-width:.09301235;stroke-linecap:round;stroke-linejoin:round;stroke-miterlimit:4;stroke-dasharray:none;stroke-dashoffset:0;stroke-opacity:1;paint-order:markers stroke fill" transform="translate(-318.886 -180.595)"/><path d="M380.84 211.977a28.87 28.87 0 0 1-28.871 28.87 28.87 28.87 0 0 1-28.871-28.87 28.87 28.87 0 0 1 28.87-28.87 28.87 28.87 0 0 1 28.871 28.87z" style="opacity:1;fill:url(#e);fill-opacity:1;stroke:none;stroke-width:.94955933;stroke-linecap:round;stroke-linejoin:round;stroke-miterlimit:4;stroke-dasharray:none;stroke-dashoffset:0;stroke-opacity:1;paint-order:markers stroke fill" transform="translate(-318.886 -180.595)"/><path d="M351.969 184.612a.42.42 0 0 0-.421.42v4.856a.42.42 0 1 0 .841 0v-4.855a.42.42 0 0 0-.42-.421zm-2.754.174a.42.42 0 0 0-.46.463l.212 2.03a.42.42 0 1 0 .837-.087l-.212-2.03a.42.42 0 0 0-.377-.376zm5.526.002a.42.42 0 0 0-.377.375l-.213 2.03a.42.42 0 1 0 .837.089l.214-2.031a.42.42 0 0 0-.46-.463zm-8.355.408a.42.42 0 0 0-.41.508l1.006 4.75a.42.42 0 1 0 .824-.174l-1.006-4.75a.42.42 0 0 0-.414-.334zm11.184.004a.42.42 0 0 0-.414.333l-1.01 4.75a.42.42 0 1 0 .824.175l1.01-4.75a.42.42 0 0 0-.41-.508zm-13.883.757a.42.42 0 0 0-.437.55l.631 1.942a.42.42 0 1 0 .8-.26l-.63-1.942a.42.42 0 0 0-.364-.29zm16.567.001a.42.42 0 0 0-.364.29l-.631 1.942a.42.42 0 1 0 .8.26l.632-1.942a.42.42 0 0 0-.437-.55zm-19.237.976a.42.42 0 0 0-.377.592l1.972 4.437a.42.42 0 1 0 .77-.342l-1.973-4.437a.42.42 0 0 0-.392-.25zm21.937.015a.42.42 0 0 0-.393.25l-1.978 4.434a.42.42 0 1 0 .77.343l1.977-4.434a.42.42 0 0 0-.376-.593zm-24.415 1.296a.42.42 0 0 0-.394.63l1.021 1.77a.42.42 0 1 0 .73-.421l-1.022-1.769a.42.42 0 0 0-.335-.21zm26.859 0a.419.419 0 0 0-.335.21l-1.021 1.769a.42.42 0 1 0 .729.42l1.021-1.768a.42.42 0 0 0-.394-.63zm-29.265 1.5a.422.422 0 0 0-.326.669l2.85 3.93a.42.42 0 1 0 .682-.494l-2.851-3.93a.42.42 0 0 0-.355-.174zm31.701.022a.42.42 0 0 0-.355.174l-2.856 3.926a.42.42 0 1 0 .68.495l2.857-3.926a.42.42 0 0 0-.326-.669zm-33.852 1.783a.42.42 0 0 0-.335.702l1.367 1.518a.42.42 0 1 0 .626-.563l-1.367-1.518a.42.42 0 0 0-.29-.14zm35.976.003a.421.421 0 0 0-.291.139l-1.366 1.517a.42.42 0 1 0 .625.564l1.367-1.518a.42.42 0 0 0-.335-.702zm-38.037 1.977a.42.42 0 0 0-.26.733l3.609 3.249a.42.42 0 1 0 .563-.626l-3.608-3.248a.42.42 0 0 0-.304-.108zm40.108.014a.419.419 0 0 0-.304.108l-3.61 3.245a.42.42 0 1 0 .563.626l3.61-3.245a.42.42 0 0 0-.259-.734zm-41.822 2.19a.42.42 0 0 0-.262.762l1.652 1.2a.42.42 0 1 0 .495-.681l-1.652-1.2a.42.42 0 0 0-.233-.081zm43.535.015a.421.421 0 0 0-.233.08l-1.653 1.2a.42.42 0 1 0 .494.681l1.653-1.2a.42.42 0 0 0-.261-.76zm-45.137 2.336a.42.42 0 0 0-.18.785l4.204 2.427a.42.42 0 1 0 .42-.729l-4.204-2.427a.42.42 0 0 0-.24-.056zm46.727 0a.417.417 0 0 0-.24.056l-4.204 2.427a.42.42 0 1 0 .42.73l4.205-2.428a.42.42 0 0 0-.18-.785zm-47.938 2.506a.42.42 0 0 0-.18.805l1.865.833a.42.42 0 1 0 .343-.77l-1.865-.831a.42.42 0 0 0-.163-.037zm49.158.017a.42.42 0 0 0-.164.037l-1.866.83a.42.42 0 1 0 .343.77l1.866-.831a.42.42 0 0 0-.18-.806zm-50.238 2.602a.42.42 0 0 0-.094.82l4.616 1.504a.42.42 0 1 0 .26-.8l-4.615-1.504a.421.421 0 0 0-.167-.02zm51.315.018a.408.408 0 0 0-.166.02l-4.618 1.5a.42.42 0 1 0 .26.801l4.618-1.5a.42.42 0 0 0-.094-.82zm-51.987 2.732a.42.42 0 0 0-.09.833l1.997.424a.42.42 0 1 0 .175-.823l-1.997-.425a.413.413 0 0 0-.085-.009zm52.654.004a.518.518 0 0 0-.084.009l-1.998.424a.42.42 0 1 0 .175.823l1.997-.424a.42.42 0 0 0-.09-.833zm-53.163 2.761a.42.42 0 0 0-.003.838l4.828.51a.42.42 0 1 0 .088-.837l-4.828-.51a.432.432 0 0 0-.085 0zm53.676.037a.386.386 0 0 0-.086 0l-4.828.504a.42.42 0 1 0 .087.837l4.829-.504a.42.42 0 0 0-.002-.837zm-53.758 2.794a.42.42 0 1 0 0 .842h2.042a.42.42 0 1 0 0-.842zm51.793 0a.42.42 0 1 0 0 .842h2.042a.42.42 0 1 0 0-.842zm-46.803 2.295a.384.384 0 0 0-.086 0l-4.829.504a.42.42 0 1 0 .088.838l4.829-.504a.42.42 0 0 0-.002-.838zm43.853.03a.42.42 0 0 0-.003.838l4.828.51a.42.42 0 1 0 .089-.837l-4.829-.51a.434.434 0 0 0-.085-.001zm-46.26 2.844a.43.43 0 0 0-.085.009l-1.998.424a.42.42 0 1 0 .175.823l1.998-.424a.42.42 0 0 0-.09-.833zm48.669.004a.42.42 0 0 0-.09.833l1.998.424a.42.42 0 1 0 .175-.824l-1.998-.424a.413.413 0 0 0-.085-.01zm-45.305 1.657a.408.408 0 0 0-.167.02l-4.617 1.5a.42.42 0 1 0 .26.801l4.618-1.5a.42.42 0 0 0-.094-.82zm41.937.015a.42.42 0 0 0-.094.82l4.616 1.504a.42.42 0 1 0 .26-.8l-4.616-1.504a.421.421 0 0 0-.166-.02zm-43.7 3.273a.42.42 0 0 0-.163.036l-1.865.831a.42.42 0 1 0 .342.769l1.866-.83a.42.42 0 0 0-.18-.806zm45.46.016a.42.42 0 0 0-.18.805l1.865.832a.42.42 0 1 0 .343-.768l-1.865-.833a.42.42 0 0 0-.163-.036zm-41.827.912a.417.417 0 0 0-.24.056l-4.204 2.427a.42.42 0 1 0 .42.73l4.205-2.428a.42.42 0 0 0-.18-.785zm38.2 0a.42.42 0 0 0-.181.785l4.205 2.427a.42.42 0 1 0 .421-.729l-4.204-2.427a.42.42 0 0 0-.24-.056zm-39.248 3.562a.421.421 0 0 0-.233.08l-1.653 1.2a.42.42 0 1 0 .494.682l1.653-1.2a.42.42 0 0 0-.261-.762zm40.287.015a.42.42 0 0 0-.262.762l1.653 1.2a.42.42 0 1 0 .495-.681l-1.653-1.2a.42.42 0 0 0-.233-.081zm-36.544.145a.418.418 0 0 0-.303.108l-3.611 3.245a.42.42 0 1 0 .563.626l3.61-3.245a.42.42 0 0 0-.259-.734zm32.8.011a.421.421 0 0 0-.259.734l3.608 3.248a.42.42 0 1 0 .564-.625l-3.609-3.249a.42.42 0 0 0-.303-.107zm-29.374 3.084a.42.42 0 0 0-.355.173l-2.857 3.927a.42.42 0 1 0 .681.495l2.856-3.926a.42.42 0 0 0-.325-.669zm25.936.018a.421.421 0 0 0-.327.668l2.851 3.93a.42.42 0 1 0 .682-.494l-2.851-3.93a.42.42 0 0 0-.355-.174zm-29.623.606a.421.421 0 0 0-.291.14l-1.366 1.517a.42.42 0 1 0 .625.563l1.367-1.517a.42.42 0 0 0-.335-.703zm33.33.002a.42.42 0 0 0-.335.702l1.367 1.518a.42.42 0 1 0 .626-.563l-1.367-1.518a.42.42 0 0 0-.29-.139zm-25.655 1.684a.419.419 0 0 0-.392.25l-1.978 4.433a.42.42 0 1 0 .769.343l1.978-4.434a.42.42 0 0 0-.377-.592zm17.956.012a.42.42 0 0 0-.377.592l1.972 4.437a.42.42 0 1 0 .77-.342l-1.973-4.437a.42.42 0 0 0-.392-.25zm-21.432 1.359a.419.419 0 0 0-.335.21l-1.02 1.768a.42.42 0 1 0 .728.421l1.021-1.769a.42.42 0 0 0-.394-.63zm24.935 0a.42.42 0 0 0-.394.63l1.02 1.77a.42.42 0 1 0 .73-.422l-1.021-1.769a.42.42 0 0 0-.335-.21zm-17.055.063a.42.42 0 0 0-.414.334l-1.009 4.749a.42.42 0 1 0 .823.175l1.01-4.75a.42.42 0 0 0-.41-.508zm9.16.003a.42.42 0 0 0-.41.508l1.006 4.75a.42.42 0 1 0 .824-.175l-1.006-4.75a.42.42 0 0 0-.414-.333zm-4.572.48a.42.42 0 0 0-.421.42v4.855a.42.42 0 1 0 .841 0v-4.855a.42.42 0 0 0-.42-.42zm-7.727 1.568a.42.42 0 0 0-.364.29l-.632 1.942a.42.42 0 1 0 .801.26l.631-1.942a.42.42 0 0 0-.436-.55zm15.45 0a.42.42 0 0 0-.437.55l.631 1.943a.42.42 0 1 0 .801-.26l-.631-1.942a.42.42 0 0 0-.364-.29zm-10.366 1.083a.42.42 0 0 0-.377.375l-.213 2.03a.42.42 0 1 0 .837.088l.213-2.03a.42.42 0 0 0-.46-.463zm5.268.002a.42.42 0 0 0-.46.463l.211 2.03a.42.42 0 1 0 .837-.088l-.211-2.03a.42.42 0 0 0-.377-.375z" style="opacity:1;fill:#f4f2f3;fill-opacity:1;stroke:none;stroke-width:.38088897;stroke-linecap:round;stroke-linejoin:round;stroke-miterlimit:4;stroke-dasharray:none;stroke-dashoffset:0;stroke-opacity:1;paint-order:markers stroke fill" transform="translate(-318.886 -180.595)"/><path transform="matrix(.35154 0 0 .35154 -112.095 -20.822)" d="m469.096 100.607-65.51 38.061-41.42 65.207 60.595-44.882z" style="opacity:.40900005;fill:#000;fill-opacity:1;stroke:none;stroke-width:1.5614785;stroke-linecap:round;stroke-linejoin:round;stroke-miterlimit:4;stroke-dasharray:none;stroke-dashoffset:0;stroke-opacity:1;paint-order:markers stroke fill;filter:url(#f)"/><path style="opacity:1;fill:#ff5150;fill-opacity:1;stroke:none;stroke-width:1.01970422;stroke-linecap:round;stroke-linejoin:round;stroke-miterlimit:4;stroke-dasharray:none;stroke-dashoffset:0;stroke-opacity:1;paint-order:markers stroke fill" d="m129.839 160.803-23.014-23.015 31.437-8.423z" transform="matrix(.64804 -.3317 -.36122 .63206 10.328 -23.732)"/><path transform="matrix(-.36122 .63206 .64804 -.3317 -20.923 6.11)" d="m129.839 160.803-23.014-23.015 31.437-8.423z" style="opacity:1;fill:#f1f1f1;fill-opacity:1;stroke:none;stroke-width:1.01970422;stroke-linecap:round;stroke-linejoin:round;stroke-miterlimit:4;stroke-dasharray:none;stroke-dashoffset:0;stroke-opacity:1;paint-order:markers stroke fill"/><path style="opacity:.243;fill:#000;stroke:none;stroke-width:.09301235px;stroke-linecap:butt;stroke-linejoin:miter;stroke-opacity:1" d="m331.853 231.185 23.416-15.752 16.815-22.665z" transform="translate(-318.886 -180.595)"/></svg>