<svg
    id="Layer_1"
    data-name="Layer 1"
    xmlns="http://www.w3.org/2000/svg"
    viewBox="0 0 34 34"
    width="100%"
    height="100%"
    xml:space="preserve">
  <defs>
    <style>.cls-1{fill:#fff;}</style>
  </defs>
  <title>Selenium</title>
  <path
      class="cls-1"
      d="M21.45,21.51a2.49,2.49,0,0,0-2.55,2.21.08.08,0,0,0,.08.1h4.95a.08.08,0,0,0,.08-.09A2.41,2.41,0,0,0,21.45,21.51Z"></path>
  <path
      class="cls-1"
      d="M32.06,4.91,21.56,16.7a.32.32,0,0,1-.47,0l-5.36-5.53a.32.32,0,0,1,0-.4l1.77-2.27a.32.32,0,0,1,.52,0l3,3.32a.32.32,0,0,0,.49,0L29.87.36A.23.23,0,0,0,29.69,0H.25A.25.25,0,0,0,0,.25v33.5A.25.25,0,0,0,.25,34h32a.25.25,0,0,0,.25-.25V5.06A.23.23,0,0,0,32.06,4.91Zm-23,25.36a8.08,8.08,0,0,1-5.74-2,.31.31,0,0,1,0-.41l1.25-1.75A.31.31,0,0,1,5,26a6.15,6.15,0,0,0,4.2,1.64c1.64,0,2.44-.76,2.44-1.56,0-2.48-8.08-.78-8.08-6.06,0-2.33,2-4.27,5.32-4.27a7.88,7.88,0,0,1,5.25,1.76.31.31,0,0,1,0,.43L12.9,19.65a.31.31,0,0,1-.45.05,6.08,6.08,0,0,0-3.84-1.32c-1.28,0-2,.57-2,1.41,0,2.23,8.06.74,8.06,6C14.67,28.33,12.84,30.27,9.05,30.27ZM26.68,25.4a.27.27,0,0,1-.28.28H19a.09.09,0,0,0-.08.1,2.81,2.81,0,0,0,3,2.32,4.62,4.62,0,0,0,2.56-.84.27.27,0,0,1,.4.06l.9,1.31a.28.28,0,0,1-.06.37,6.67,6.67,0,0,1-4.1,1.28,5.28,5.28,0,0,1-5.57-5.48,5.31,5.31,0,0,1,5.4-5.46c3.11,0,5.22,2.33,5.22,5.74Z"></path>
</svg>