<svg id="Layer_1" data-name="Layer 1" xmlns="http://www.w3.org/2000/svg" viewBox="0 0 57.28 59.99"><defs><style>.cls-1{fill:#fff;}</style></defs><title>selenium grid logo no text white</title><path class="cls-1" d="M37.85,38a4.39,4.39,0,0,0-4.5,3.91.14.14,0,0,0,.14.17h8.74a.15.15,0,0,0,.14-.16A4.24,4.24,0,0,0,37.85,38Zm0,0a4.39,4.39,0,0,0-4.5,3.91.14.14,0,0,0,.14.17h8.74a.15.15,0,0,0,.14-.16A4.24,4.24,0,0,0,37.85,38Zm19-38H.43A.43.43,0,0,0,0,.43V59.56A.43.43,0,0,0,.43,60H56.84a.44.44,0,0,0,.44-.43V.43A.44.44,0,0,0,56.84,0ZM16,53.41c-4.52,0-7.83-1.44-10.12-3.6a.55.55,0,0,1-.07-.72L8,46a.56.56,0,0,1,.83-.09,10.81,10.81,0,0,0,7.41,2.9c2.9,0,4.31-1.34,4.31-2.75,0-4.38-14.25-1.37-14.25-10.69,0-4.12,3.56-7.53,9.39-7.53A13.91,13.91,0,0,1,24.94,31a.55.55,0,0,1,.07.75l-2.26,3a.55.55,0,0,1-.79.09,10.74,10.74,0,0,0-6.77-2.33c-2.26,0-3.52,1-3.52,2.49,0,3.93,14.21,1.3,14.21,10.54C25.88,50,22.65,53.41,16,53.41Zm31.1-8.59a.49.49,0,0,1-.48.49h-13a.15.15,0,0,0-.15.17,5,5,0,0,0,5.27,4.1,8.13,8.13,0,0,0,4.52-1.49.49.49,0,0,1,.7.1l1.58,2.32a.49.49,0,0,1-.1.66,11.79,11.79,0,0,1-7.23,2.25c-5.6,0-9.83-3.77-9.83-9.67a9.37,9.37,0,0,1,9.52-9.64c5.49,0,9.22,4.12,9.22,10.13ZM42,24.13h1.89a4.24,4.24,0,1,1,0,2H42a3.63,3.63,0,0,1-3.63-3.62V18.17H35.64a4.24,4.24,0,1,1,0-2H38.4V11.84A3.64,3.64,0,0,1,42,8.21h1.89a4.24,4.24,0,1,1,0,2H42a1.63,1.63,0,0,0-1.63,1.63V22.51A1.63,1.63,0,0,0,42,24.13ZM37.85,38a4.39,4.39,0,0,0-4.5,3.91.14.14,0,0,0,.14.17h8.74a.15.15,0,0,0,.14-.16A4.24,4.24,0,0,0,37.85,38Zm0,0a4.39,4.39,0,0,0-4.5,3.91.14.14,0,0,0,.14.17h8.74a.15.15,0,0,0,.14-.16A4.24,4.24,0,0,0,37.85,38Zm0,0a4.39,4.39,0,0,0-4.5,3.91.14.14,0,0,0,.14.17h8.74a.15.15,0,0,0,.14-.16A4.24,4.24,0,0,0,37.85,38Z"/></svg>