<svg xmlns="http://www.w3.org/2000/svg" height="512" width="512" xmlns:v="https://vecta.io/nano"><path d="M256 336a24 24 0 1 0 24 24 24.027 24.027 0 0 0-24-24zm0 32a8 8 0 1 1 8-8 8.009 8.009 0 0 1-8 8zm192-248a8 8 0 0 0-2.343-5.657l-96-96A8 8 0 0 0 344 16H104a40.045 40.045 0 0 0-40 40v400a40.045 40.045 0 0 0 40 40h304a40.045 40.045 0 0 0 40-40zm-96-76.687L420.687 112H376a24.027 24.027 0 0 1-24-24zM432 456a24.028 24.028 0 0 1-24 24H104a24.028 24.028 0 0 1-24-24V56a24.028 24.028 0 0 1 24-24h232v56a40.045 40.045 0 0 0 40 40h56zM256 160a64.072 64.072 0 0 0-64 64 8 8 0 0 0 16 0 48 48 0 1 1 48 48 8 8 0 0 0-8 8v32a8 8 0 0 0 16 0v-24.5a64 64 0 0 0-8-127.5z"/></svg>