<?xml version="1.0" encoding="iso-8859-1"?>
<!-- Generator: Adobe Illustrator 19.0.0, SVG Export Plug-In . SVG Version: 6.00 Build 0)  -->
<svg version="1.1" id="Capa_1" xmlns="http://www.w3.org/2000/svg" xmlns:xlink="http://www.w3.org/1999/xlink" x="0px" y="0px"
	 viewBox="0 0 494.046 494.046" style="enable-background:new 0 0 494.046 494.046;" xml:space="preserve">
<g>
	<path style="fill:#2196F3;" d="M239.03,84.018c4.537-3.758,5.169-10.482,1.411-15.019c-2.369-2.86-6.055-4.282-9.731-3.755
		C128.258,82.808,53.956,172.514,55.777,276.445c0.04,8.742,0.653,17.472,1.835,26.133c0.635,4.822,4.452,8.604,9.28,9.195
		c0.44,0.032,0.882,0.032,1.323,0c4.377,0.001,8.309-2.672,9.92-6.741c16.879-41.817,38.878-81.379,65.493-117.781
		C171.027,149.019,203.074,114.342,239.03,84.018z"/>
	<path style="fill:#2196F3;" d="M458.465,242.845c-10.537-76.605-62.266-141.247-134.699-168.32
		c-3.609-1.307-7.642-0.573-10.56,1.92c-19.651,17.058-38.112,35.441-55.253,55.019c-3.912,4.405-3.512,11.147,0.893,15.059
		c1.706,1.515,3.853,2.443,6.126,2.648c38.101,3.456,71.317,37.525,83.904,84.523H183.393c-3.498-0.001-6.774,1.713-8.768,4.587
		c-13.675,19.712-26.624,39.467-38.4,58.709l0,0l0,0c-18.33,28.882-33.534,59.633-45.355,91.733
		c-1.068,3.267-0.496,6.849,1.536,9.621c0.175,0.261,0.368,0.511,0.576,0.747c36.517,56.005,98.648,90.01,165.504,90.581
		c84.889-0.929,160.139-54.835,188.331-134.912c2.074-5.514-0.715-11.665-6.229-13.739c-1.2-0.451-2.472-0.683-3.755-0.683H348.3
		c-4.054,0-7.757,2.298-9.557,5.931c-13.387,33.157-44.575,55.723-80.256,58.069c-41.045,0-76.608-34.603-90.048-85.333h279.467
		c5.347,0.054,9.908-3.859,10.667-9.152c1.69-11.093,2.582-22.294,2.667-33.515C461.121,265.122,460.194,253.928,458.465,242.845z"
		/>
</g>
<path style="fill:#FFC107;" d="M399.564,10.312c-35.008-25.259-101.717-3.328-174.123,57.173
	c-37.357,31.492-70.651,67.509-99.115,107.221C98.68,212.558,75.828,253.689,58.294,297.16c-0.143,0.355-0.264,0.718-0.363,1.088
	c-34.133,85.547-33.323,157.056,2.133,182.336c11.621,8.075,25.27,12.738,39.403,13.461c2.392,0.019,4.78-0.209,7.125-0.683
	c6.405-1.062,12.033-4.853,15.424-10.389c2.997-5.024,1.389-11.524-3.605-14.571c-6.571-4.011-26.56-16.256-7.403-72.811
	c11.356-30.589,25.885-59.905,43.349-87.467c11.669-18.944,24.405-38.4,37.824-57.728l15.083-21.205
	c20.808-28.986,43.073-56.897,66.709-83.627c16.486-18.848,34.241-36.546,53.141-52.971c40.299-34.539,58.048-33.813,63.787-32
	s9.728,8.107,12.096,18.539c1.126,5.252,6.028,8.811,11.371,8.256c5.283-0.492,9.4-4.792,9.664-10.091
	C425.59,37.81,411.596,19.122,399.564,10.312z"/>
<path d="M68.086,311.944c-5.433,0.038-10.026-4.013-10.667-9.408c-1.062-8.686-1.617-17.426-1.664-26.176
	c-1.785-103.918,72.5-193.604,174.933-211.2c5.794-1.063,11.353,2.773,12.416,8.567s-2.773,11.353-8.567,12.416
	c-0.265,0.049-0.531,0.087-0.799,0.115c-91.935,16.039-158.45,96.709-156.672,190.016c0.036,7.91,0.549,15.81,1.536,23.659
	c0.7,5.849-3.474,11.159-9.323,11.859c-0.007,0.001-0.014,0.002-0.021,0.002L68.086,311.944z"/>
<path d="M258.508,489.693c-67.375-0.607-129.919-35.086-166.4-91.733c-3.103-5.007-1.56-11.582,3.448-14.686
	c4.803-2.977,11.094-1.691,14.344,2.931c32.545,50.658,88.4,81.536,148.608,82.155c70.318-0.716,133.75-42.403,162.304-106.667
	h-66.005c-17.758,37.531-54.819,62.162-96.299,64c-54.912,0-101.845-47.467-114.176-115.435c-1.049-5.797,2.801-11.346,8.598-12.395
	c0.626-0.113,1.262-0.17,1.898-0.17h283.733c0.819-7.082,1.246-14.204,1.28-21.333c-0.078-10.208-0.898-20.396-2.453-30.485
	c-9.435-68.824-55.88-126.919-120.939-151.275c-5.51-2.083-8.289-8.239-6.206-13.749c2.034-5.382,7.97-8.18,13.416-6.325
	c72.458,27.032,124.236,91.648,134.827,168.256c1.704,11.121,2.603,22.35,2.688,33.6c-0.085,11.221-0.976,22.421-2.667,33.515
	c-0.759,5.293-5.32,9.206-10.667,9.152H168.033c13.397,50.837,49.28,85.333,90.389,85.333c35.694-2.342,66.893-24.918,80.277-58.091
	c1.8-3.632,5.503-5.931,9.557-5.931h88.576c5.891,0,10.667,4.776,10.667,10.667c0,1.282-0.231,2.554-0.683,3.755
	C418.628,434.85,343.389,488.755,258.508,489.693z"/>
<path d="M362.166,255.026H183.478c-5.891,0-10.667-4.776-10.667-10.667c0-5.891,4.776-10.667,10.667-10.667h165.397
	c-12.629-46.933-45.824-81.067-83.883-84.523c-5.867-0.53-10.194-5.716-9.664-11.583c0,0,0-0.001,0-0.001
	c0.67-5.793,5.765-10.044,11.584-9.664c51.691,4.715,94.187,50.731,105.771,114.539c1.049,5.797-2.801,11.346-8.598,12.395
	c-0.626,0.113-1.262,0.17-1.898,0.17L362.166,255.026z"/>
<path d="M99.382,494.024c-14.13-0.72-27.781-5.359-39.424-13.397c-26.261-18.965-33.92-63.424-21.013-122.027
	c16.648-66.453,46.328-128.938,87.317-183.829c39.939-56.852,90.487-105.451,148.864-143.125
	C328.033-0.739,373.43-8.44,399.564,10.482c12.011,8.661,26.005,27.285,24.469,66.752c-0.221,5.887-5.172,10.48-11.059,10.259
	c-4.82-0.181-8.919-3.574-9.997-8.275c-3.947-17.067-11.349-18.475-13.803-18.965c-30.677-6.272-105.536,63.317-181.909,169.024
	C112.076,361.032,98.486,420.402,103.841,447.005c1.457,8.895,6.755,16.697,14.485,21.333c4.971,3.03,6.594,9.486,3.648,14.507
	c-3.334,5.562-8.927,9.394-15.317,10.496C104.262,493.816,101.824,494.044,99.382,494.024z M364.086,21.448
	c-27.951,2.6-54.761,12.357-77.845,28.331c-55.869,36.393-104.298,83.091-142.699,137.6
	C104.256,239.898,75.78,299.69,59.766,363.293c-10.837,49.067-6.08,86.613,12.672,100.139c5.728,3.864,12.111,6.654,18.837,8.235
	c-4.119-6.147-6.956-13.062-8.341-20.331c-9.173-45.419,25.856-122.112,107.029-234.453
	c32.341-44.8,142.741-189.504,203.435-177.429c1.26,0.257,2.506,0.577,3.733,0.96c-2.242-4.96-5.706-9.269-10.069-12.523
	C380.278,23.365,372.234,21.11,364.086,21.448z"/>
<g>
</g>
<g>
</g>
<g>
</g>
<g>
</g>
<g>
</g>
<g>
</g>
<g>
</g>
<g>
</g>
<g>
</g>
<g>
</g>
<g>
</g>
<g>
</g>
<g>
</g>
<g>
</g>
<g>
</g>
</svg>
