<?xml version="1.0" encoding="iso-8859-1"?>
<!-- Generator: Adobe Illustrator 19.0.0, SVG Export Plug-In . SVG Version: 6.00 Build 0)  -->
<svg version="1.1" id="Capa_1" xmlns="http://www.w3.org/2000/svg" xmlns:xlink="http://www.w3.org/1999/xlink" x="0px" y="0px"
	 viewBox="0 0 512 512" style="enable-background:new 0 0 512 512;" xml:space="preserve">
<path style="fill:#F44336;" d="M256,0C126.613,0,21.333,114.837,21.333,256S126.613,512,256,512s234.667-114.837,234.667-256
	S385.387,0,256,0z M340.971,397.355c-6.765,36.76-36.141,65.159-73.109,70.677c-3.894,0.87-7.872,1.306-11.861,1.301
	c-4.244-0.012-8.472-0.499-12.608-1.451c-36.685-5.697-65.737-34.003-72.384-70.528c-13.149-46.017-20.432-93.512-21.675-141.355
	c1.253-47.844,8.543-95.338,21.696-141.355c6.773-36.752,36.148-65.141,73.109-70.656c8.053-1.75,16.393-1.707,24.427,0.128
	c36.743,5.653,65.863,33.977,72.533,70.549c13.109,46.016,20.356,93.502,21.568,141.333
	C361.417,303.844,354.127,351.338,340.971,397.355z"/>
<path d="M256,512C126.613,512,21.333,397.163,21.333,256S126.613,0,256,0s234.667,114.837,234.667,256S385.387,512,256,512z
	 M256,21.333C138.368,21.333,42.667,126.613,42.667,256S138.368,490.667,256,490.667S469.333,385.387,469.333,256
	S373.632,21.333,256,21.333z"/>
<path d="M256,469.333c-4.244-0.013-8.472-0.5-12.608-1.451c-36.682-5.703-65.731-34.006-72.384-70.528
	c-13.131-46.021-20.414-93.513-21.675-141.355c1.261-47.841,8.543-95.333,21.675-141.355c6.773-36.752,36.148-65.141,73.109-70.656
	c8.071-1.719,16.42-1.668,24.469,0.149c36.682,5.703,65.731,34.006,72.384,70.528c13.137,46.013,20.426,93.498,21.696,141.333
	c-1.261,47.841-8.543,95.333-21.675,141.355l0,0c-6.765,36.76-36.141,65.159-73.109,70.677
	C263.982,468.903,259.997,469.339,256,469.333z M256,64c-2.636,0.004-5.263,0.312-7.829,0.917
	c-28.805,4.148-51.639,26.413-56.512,55.104c-12.667,44.268-19.72,89.952-20.992,135.979c1.272,46.027,8.325,91.711,20.992,135.979
	c4.753,28.464,27.275,50.641,55.808,54.955c5.366,1.447,11.013,1.498,16.405,0.149c28.805-4.148,51.639-26.413,56.512-55.104
	c12.653-44.27,19.691-89.954,20.949-135.979c-1.272-46.027-8.325-91.711-20.992-135.979c-4.753-28.464-27.275-50.641-55.808-54.955
	C261.739,64.385,258.876,64.027,256,64z"/>
<g>
</g>
<g>
</g>
<g>
</g>
<g>
</g>
<g>
</g>
<g>
</g>
<g>
</g>
<g>
</g>
<g>
</g>
<g>
</g>
<g>
</g>
<g>
</g>
<g>
</g>
<g>
</g>
<g>
</g>
</svg>
