<svg xmlns="http://www.w3.org/2000/svg" viewBox="0 0 22 22"><defs><clipPath><path d="m22.2 686.12h1447.73v-667.19h-1447.73v667.19"/></clipPath><clipPath><path fill="#f2f2f2" d="m7 1023.36h1v1h-1z"/></clipPath><clipPath><path d="m0 706.47h1490.93v-706.47h-1490.93v706.47"/></clipPath><clipPath><path fill="#aade87" fill-opacity=".472" d="m-6 1028.36h32v32h-32z"/></clipPath><clipPath><path fill="#00f" fill-opacity=".514" d="m-7 1024.36h34v34h-34z"/></clipPath><clipPath><path fill="#f2f2f2" d="m7 1023.36h1v1h-1z"/></clipPath></defs><path d="M11 3A8 8 0 0 0 3 11 8 8 0 0 0 11 19 8 8 0 0 0 19 11 8 8 0 0 0 11 3M10.994 6.5C11.758 6.5 12.379 6.719 12.857 7.158 13.336 7.589 13.576 8.142 13.576 8.816 13.576 9.109 13.495 9.406 13.336 9.707 13.176 10.01 13.03 10.223 12.908 10.354 12.791 10.475 12.623 10.635 12.404 10.83L12.342 10.891C11.83 11.338 11.572 11.785 11.572 12.232V12.719H10.389V12.146C10.389 11.781 10.469 11.467 10.629 11.207 10.788 10.939 11.07 10.625 11.473 10.268 11.699 10.06 11.859 9.914 11.951 9.816 12.05 9.711 12.148 9.569 12.24 9.391 12.341 9.204 12.393 9.01 12.393 8.816 12.393 8.442 12.266 8.142 12.01 7.914 11.77 7.686 11.431 7.572 10.994 7.572 10.272 7.572 9.776 7.964 9.508 8.744L8.424 8.305C8.6 7.841 8.904 7.426 9.332 7.06 9.769 6.687 10.322 6.5 10.994 6.5M10.98 13.842C11.224 13.842 11.426 13.923 11.586 14.09 11.754 14.249 11.838 14.442 11.838 14.67 11.838 14.898 11.754 15.09 11.586 15.256 11.426 15.418 11.224 15.5 10.98 15.5 10.737 15.5 10.531 15.418 10.363 15.256 10.204 15.09 10.125 14.898 10.125 14.67 10.125 14.442 10.204 14.249 10.363 14.09 10.531 13.923 10.737 13.842 10.98 13.842" transform="translate(0-.002)" fill="#4d4d4d" fill-rule="evenodd"/></svg>